HIERARCHY
ROOT Hips
{
	OFFSET -0.001795 -0.223333 0.028219
	CHANNELS 6 Xposition Yposition Zposition Zrotation Yrotation Xrotation 
	JOINT LeftUpLeg
	{
		OFFSET 0.069520 -0.091406 -0.006815
		CHANNELS 3 Zrotation Yrotation Xrotation
		JOINT LeftLeg
		{
			OFFSET 0.034277 -0.375199 -0.004496
			CHANNELS 3 Zrotation Yrotation Xrotation
			JOINT LeftFoot
			{
				OFFSET -0.013596 -0.397961 -0.043693
				CHANNELS 3 Zrotation Yrotation Xrotation
				JOINT LeftToe
				{
					OFFSET 0.026358 -0.055791 0.119288
					CHANNELS 3 Zrotation Yrotation Xrotation
					End Site
					{
						OFFSET 0.000000 0.000000 0.000000
					}
				}
			}
		}
	}
	JOINT RightUpLeg
	{
		OFFSET -0.067670 -0.090522 -0.004320
		CHANNELS 3 Zrotation Yrotation Xrotation
		JOINT RightLeg
		{
			OFFSET -0.038290 -0.382569 -0.008850
			CHANNELS 3 Zrotation Yrotation Xrotation
			JOINT RightFoot
			{
				OFFSET 0.015774 -0.398415 -0.042312
				CHANNELS 3 Zrotation Yrotation Xrotation
				JOINT RightToe
				{
					OFFSET -0.025372 -0.048144 0.123348
					CHANNELS 3 Zrotation Yrotation Xrotation
					End Site
					{
						OFFSET 0.000000 0.000000 0.000000
					}
				}
			}
		}
	}
	JOINT Spine
	{
		OFFSET -0.002533 0.108963 -0.026696
		CHANNELS 3 Zrotation Yrotation Xrotation
		JOINT Spine1
		{
			OFFSET 0.005487 0.135180 0.001092
			CHANNELS 3 Zrotation Yrotation Xrotation
			JOINT Spine2
			{
				OFFSET 0.001457 0.052922 0.025425
				CHANNELS 3 Zrotation Yrotation Xrotation
				JOINT Neck
				{
					OFFSET -0.002778 0.213870 -0.042857
					CHANNELS 3 Zrotation Yrotation Xrotation
					JOINT Head
					{
						OFFSET 0.005152 0.064970 0.051349
						CHANNELS 3 Zrotation Yrotation Xrotation
						End Site
						{
							OFFSET 0.000000 0.000000 0.000000
						}
					}
				}
				JOINT LeftShoulder
				{
					OFFSET 0.078845 0.121749 -0.034090
					CHANNELS 3 Zrotation Yrotation Xrotation
					JOINT LeftArm
					{
						OFFSET 0.090977 0.030469 -0.008868
						CHANNELS 3 Zrotation Yrotation Xrotation
						JOINT LeftForeArm
						{
							OFFSET 0.259612 -0.012772 -0.027456
							CHANNELS 3 Zrotation Yrotation Xrotation
							JOINT LeftHand
							{
								OFFSET 0.249234 0.008986 -0.001171
								CHANNELS 3 Zrotation Yrotation Xrotation
								End Site
								{
									OFFSET 0.000000 0.000000 0.000000
								}
							}
						}
					}
				}
				JOINT RightShoulder
				{
					OFFSET -0.081759 0.118833 -0.038615
					CHANNELS 3 Zrotation Yrotation Xrotation
					JOINT RightArm
					{
						OFFSET -0.096012 0.032551 -0.009143
						CHANNELS 3 Zrotation Yrotation Xrotation
						JOINT RightForeArm
						{
							OFFSET -0.253742 -0.013329 -0.021401
							CHANNELS 3 Zrotation Yrotation Xrotation
							JOINT RightHand
							{
								OFFSET -0.255298 0.007772 -0.005559
								CHANNELS 3 Zrotation Yrotation Xrotation
								End Site
								{
									OFFSET 0.000000 0.000000 0.000000
								}
							}
						}
					}
				}
			}
		}
	}
}
MOTION
Frames: 13
Frame Time: 0.050000
0.000000 0.799228 0.000000 -2.229021 2.157806 22.955848 7.151922 -3.012194 -72.057452 -6.806579 1.850338 42.052795 6.164251 14.797675 7.619023 0.000000 0.000000 0.000000 -7.291923 1.923558 -56.445730 12.454763 -11.026225 84.431884 -7.419360 -18.662691 3.945879 0.000000 0.000000 0.000000 -6.768739 0.935959 67.117603 0.643805 0.264007 -14.947059 0.228013 2.594965 19.137296 0.947951 1.608246 -27.628867 0.000000 0.000000 0.000000 -0.847801 -22.796510 8.733660 -34.104900 -29.051996 2.093512 53.200076 -41.282365 -18.673510 0.000000 0.000000 0.000000 5.026498 15.240732 6.834111 55.247406 28.502518 6.899512 -55.540616 67.862593 -31.156241 0.000000 0.000000 0.000000 
0.014424 0.797422 0.044812 -4.509872 0.674860 23.295389 8.428076 -1.265536 -71.030569 -7.824030 2.763302 45.823459 7.340405 16.123437 1.166945 0.000000 0.000000 0.000000 -5.478865 3.768469 -64.052178 13.256688 -11.145785 86.322715 -6.193865 -15.346293 -2.129668 0.000000 0.000000 0.000000 -6.475412 1.483607 66.558992 1.244865 -0.100845 -10.748072 -0.467160 4.581166 14.125250 2.539592 0.650408 -22.416722 0.000000 0.000000 0.000000 -8.142029 -26.013969 10.843752 -27.172926 -24.792279 0.711779 47.953800 -40.496902 -16.592787 0.000000 0.000000 0.000000 14.015820 18.716660 10.443609 46.842094 24.188873 3.462370 -69.284829 64.684194 -38.898704 0.000000 0.000000 0.000000 
0.028663 0.796372 0.088656 -3.739028 1.418370 21.196293 6.816417 -2.635882 -67.564593 -8.792309 3.345932 49.133244 7.985336 16.957386 -4.264589 0.000000 0.000000 0.000000 -8.666240 1.668269 -67.415071 15.901892 -13.930460 82.946937 -7.301512 -18.121236 -3.156121 0.000000 0.000000 0.000000 -6.577896 1.168419 69.556822 1.416265 -0.107255 -11.979560 1.519120 4.202333 15.115509 1.976593 0.671877 -20.121505 0.000000 0.000000 0.000000 -9.757859 -28.063636 12.167178 -29.600138 -25.166712 1.044888 43.484153 -38.166237 -13.787982 0.000000 0.000000 0.000000 10.506066 17.454395 8.784657 47.791719 24.919214 4.110525 -65.120600 64.954318 -36.523360 0.000000 0.000000 0.000000 
0.041538 0.794382 0.130975 -4.778469 0.355408 20.477531 6.194070 -2.478449 -66.043727 -8.160414 3.385955 53.710206 8.620102 18.024949 -7.743086 0.000000 0.000000 0.000000 -8.449074 2.454455 -73.353225 16.914075 -13.010444 76.397230 -8.651189 -21.710600 -0.740330 0.000000 0.000000 0.000000 -5.650670 0.962109 69.897348 0.286915 0.149794 -8.758633 1.749474 5.645064 12.043662 3.726050 -0.213587 -19.432132 0.000000 0.000000 0.000000 -12.233252 -27.571869 11.938134 -30.000333 -23.466272 1.033229 39.174449 -42.388980 -13.872767 0.000000 0.000000 0.000000 10.608263 14.963306 7.672990 49.598020 21.963505 3.471951 -71.643731 67.609987 -43.147745 0.000000 0.000000 0.000000 
0.053148 0.789796 0.172652 -4.439253 0.529200 19.450603 4.834985 -3.342693 -64.846955 -8.392604 3.747160 58.552445 9.077429 18.950456 -8.984424 0.000000 0.000000 0.000000 -9.959464 1.318063 -75.907856 19.419219 -13.492448 68.018794 -9.760839 -24.020818 3.873278 0.000000 0.000000 0.000000 -4.298400 -0.223864 71.323715 -0.471148 0.433752 -9.533418 1.178535 4.750967 12.915411 4.556108 -0.691538 -20.153261 0.000000 0.000000 0.000000 -14.082974 -28.573373 12.947172 -32.118155 -22.007365 0.897470 36.383798 -43.997709 -13.152273 0.000000 0.000000 0.000000 10.972953 14.596057 7.372174 50.161651 20.310862 2.716276 -75.182071 68.466538 -46.929682 0.000000 0.000000 0.000000 
0.062799 0.786461 0.213558 -4.641135 -0.525717 18.760708 4.483884 -3.030930 -62.593991 -9.132398 4.743678 61.314606 9.690654 20.327251 -10.741274 0.000000 0.000000 0.000000 -9.743578 2.042996 -76.310078 20.167515 -11.754923 58.526238 -8.097750 -20.659697 3.429153 0.000000 0.000000 0.000000 -3.547819 -0.318940 72.515165 0.027612 0.247128 -9.583568 -0.174831 4.610554 12.441269 5.074679 -0.892964 -20.868415 0.000000 0.000000 0.000000 -14.075825 -26.163493 11.598269 -38.159573 -19.559848 0.787212 31.807717 -47.750940 -12.321432 0.000000 0.000000 0.000000 11.011187 13.838168 6.943662 51.278740 18.833014 2.267669 -84.903736 69.883302 -56.365555 0.000000 0.000000 0.000000 
0.070127 0.784594 0.253123 -4.442651 -2.259757 19.502263 4.694706 -2.228690 -61.398403 -10.794660 6.652328 62.703709 10.294187 21.780351 -10.610119 0.000000 0.000000 0.000000 -8.147890 4.144833 -76.783087 18.639953 -8.540211 48.203044 -6.268524 -17.309057 8.775230 0.000000 0.000000 0.000000 -2.901906 0.033176 72.044040 0.076186 0.213405 -9.544736 -1.088535 4.925698 11.752992 6.029654 -1.488603 -20.011349 0.000000 0.000000 0.000000 -15.469776 -24.249637 10.668305 -41.802401 -15.734292 -0.094444 26.827438 -51.850710 -11.134760 0.000000 0.000000 0.000000 11.990472 12.215989 6.284004 52.106302 15.224946 0.847052 -96.554262 72.096184 -69.138860 0.000000 0.000000 0.000000 
0.075558 0.784041 0.289911 -3.211781 -1.972134 20.534345 3.555374 -2.966588 -60.870481 -11.805775 7.449556 63.731659 10.630551 22.537399 -8.756124 0.000000 0.000000 0.000000 -6.613120 4.969559 -76.015856 15.276772 -6.020109 43.592852 -4.776980 -14.933136 13.034385 0.000000 0.000000 0.000000 -1.445195 -1.309360 71.704850 0.202696 0.167258 -9.637400 -2.374483 3.790598 11.536493 7.416451 -2.457532 -19.295570 0.000000 0.000000 0.000000 -14.633146 -21.997499 9.605990 -46.491264 -12.959079 -0.992587 20.977540 -56.350450 -8.962123 0.000000 0.000000 0.000000 11.849908 10.279088 5.080134 54.712440 11.131135 -0.742483 -107.643429 73.310910 -81.931229 0.000000 0.000000 0.000000 
0.079052 0.785795 0.323857 -2.068337 -1.600832 21.428789 2.937851 -3.443610 -60.459070 -12.811572 8.299397 65.081895 9.999867 20.971183 -5.773319 0.000000 0.000000 0.000000 -5.482904 5.465765 -75.580941 12.576584 -4.730877 44.980580 -3.985806 -13.454300 13.083457 0.000000 0.000000 0.000000 -0.201607 -2.557343 72.311052 0.812749 -0.019735 -10.588428 -3.629701 3.713569 12.158858 9.700146 -3.659124 -19.758326 0.000000 0.000000 0.000000 -14.519384 -20.720493 8.907177 -48.597178 -10.376146 -2.026016 17.724682 -60.175617 -7.848798 0.000000 0.000000 0.000000 10.635438 7.035782 3.356348 56.335162 7.336980 -2.400539 -125.611473 74.528282 -102.479015 0.000000 0.000000 0.000000 
0.080821 0.791018 0.354065 -2.033077 -0.617914 23.279181 2.499542 -3.996526 -60.656271 -12.394689 7.918261 67.046118 9.033508 18.827335 -5.731281 0.000000 0.000000 0.000000 -4.021172 5.997535 -75.739967 11.085769 -4.067546 46.094782 -4.429383 -14.132212 12.125748 0.000000 0.000000 0.000000 0.420226 -3.516344 71.407742 1.442761 -0.233574 -10.514144 -3.216168 4.852596 12.657267 10.234693 -3.683616 -20.518652 0.000000 0.000000 0.000000 -13.994477 -19.531480 7.997275 -51.648306 -8.810172 -2.766915 13.063357 -63.399143 -5.778904 0.000000 0.000000 0.000000 9.517353 4.233220 2.145459 58.366618 4.503960 -3.654560 -135.941906 75.841148 -114.889500 0.000000 0.000000 0.000000 
0.081238 0.799005 0.380896 -1.575436 -0.412545 24.829635 2.993121 -3.887279 -61.914917 -12.701244 8.393518 68.937282 6.862672 14.628936 -0.137588 0.000000 0.000000 0.000000 -3.626717 6.091315 -75.327553 10.676401 -3.821332 45.702763 -6.025890 -17.216999 11.564877 0.000000 0.000000 0.000000 0.691126 -3.853038 71.302012 2.330137 -0.531331 -10.572412 -3.012625 5.234556 13.604628 10.189602 -3.681139 -20.333761 0.000000 0.000000 0.000000 -12.198603 -18.292693 7.231984 -53.529658 -8.735306 -3.037052 9.410477 -66.831347 -3.832796 0.000000 0.000000 0.000000 8.738938 2.751375 1.467027 59.349219 3.301717 -4.266675 -141.134466 78.267924 -122.943514 0.000000 0.000000 0.000000 
0.080496 0.805718 0.405088 -0.769544 0.535761 26.952376 3.495839 -4.067632 -63.241683 -12.140199 7.825232 70.517208 4.847381 10.632877 0.545530 0.000000 0.000000 0.000000 -3.519462 5.581558 -75.060823 9.921219 -3.439957 44.599003 -7.143953 -19.322306 10.030787 0.000000 0.000000 0.000000 1.536819 -4.954260 69.957134 3.291684 -0.909469 -9.485129 -2.976139 5.089759 12.502170 10.466380 -3.949772 -19.451387 0.000000 0.000000 0.000000 -12.743114 -18.263820 7.310959 -53.344527 -7.892502 -3.234285 4.367484 -68.319217 -0.578743 0.000000 0.000000 0.000000 9.068576 1.915538 1.041084 59.308095 2.519914 -4.499867 -149.134713 81.246022 -134.767199 0.000000 0.000000 0.000000 
0.079073 0.811000 0.427157 -0.394181 0.073109 28.100662 5.491627 -2.915572 -65.874747 -14.351810 10.597397 73.514265 5.634799 13.127791 5.820101 0.000000 0.000000 0.000000 -3.369274 5.871072 -74.937497 9.953358 -3.501222 46.160414 -7.348560 -19.739563 6.847626 0.000000 0.000000 0.000000 2.069280 -5.161383 69.751056 2.449547 -0.589403 -10.117751 -2.083889 3.987728 12.729092 9.684256 -3.518081 -20.144170 0.000000 0.000000 0.000000 -12.478299 -17.608100 7.308331 -51.159134 -9.147390 -2.637092 5.409010 -69.183877 -0.880441 0.000000 0.000000 0.000000 8.999469 0.948481 0.358155 58.810369 2.673520 -4.472773 -176.242430 85.183443 -167.654470 0.000000 0.000000 0.000000 
